<svg version="1.1" id="Layer_1" xmlns="http://www.w3.org/2000/svg" xmlns:xlink="http://www.w3.org/1999/xlink" x="0px" y="0px"
	 viewBox="0 0 293.1 52.1" style="enable-background:new 0 0 293.1 52.1;" xml:space="preserve">
<style type="text/css">
	.st0{fill:#FFF;}
	.st1{fill:#FFF;}
	.st2{fill:#FFF;}
	.st3{fill:#000;}
</style>
<g>
	<g>
		<g>
			<path class="st0" d="M87,14.7C86.9,6,78.8,1.5,75.1,0.9c-1.6-0.3-3.2-0.4-4.8-0.3v4.6c1.3-0.1,2.6,0,4,0.3c2.1,0.4,8,3.3,8.1,9.4
				c0.1,5.6-4.1,8.5-4.6,8.8c-0.3,0.2-0.6,0.5-0.9,0.8c-0.6,1.1-0.3,2.4,0.7,3c0,0,0.1,0,0.1,0.1c0.2,0.1,4.8,3,4.7,8.9
				c-0.1,6-6,9-8.1,9.4c-5.9,1.1-11.6-0.9-16.8-5.9c-6.3-6-9.6-11.9-10.8-14.3l-2.5-4.9l0,0C42.2,17.4,39,12.7,34,8
				c-6.4-6.1-13.4-8.5-20.8-7.1C9.6,1.5,1.5,6,1.4,14.7C1.3,20,3.8,23.5,5.8,25.6c-2,2-4.5,5.6-4.5,10.9c0.1,8.7,8.2,13.1,11.8,13.8
				c1.3,0.2,2.7,0.4,4,0.4c0.7,0,1.4,0,2.1-0.1v-4.6c-1.7,0.2-3.5,0.2-5.2-0.1c-2.1-0.4-8-3.3-8.1-9.4c-0.1-5.6,4-8.4,4.6-8.8
				c0.4-0.2,0.7-0.5,0.9-0.8c0.6-1,0.3-2.4-0.7-3c0,0-0.1,0-0.1-0.1c-0.2-0.1-4.8-3-4.7-8.9c0.1-6,6-9,8.1-9.4
				c5.9-1.1,11.6,0.9,16.8,5.9c4.6,4.4,7.6,8.6,9.3,11.6l1.4,2.7l2.5,4.8c0,0,1.3,2,1.6,2.5l0.1,0.1l0,0c2,2.9,4.7,6.4,8.5,10
				c5.2,5,10.9,7.5,16.8,7.5c1.3,0,2.6-0.1,4-0.4c3.7-0.7,11.7-5.1,11.9-13.8c0.1-5.3-2.4-8.9-4.5-10.9C84.5,23.5,87.1,20,87,14.7z"
				/>
		</g>
		<g>
	
			<path class="st1" d="M30.9,39.8c-0.4,0.4-0.8,0.8-1.2,1.1c-0.1,0.1-0.2,0.2-0.3,0.3c-0.3,0.3-0.7,0.6-1,0.8
				c-0.1,0.1-0.2,0.1-0.2,0.2c-0.4,0.3-0.9,0.6-1.3,0.9c-0.1,0-0.1,0.1-0.2,0.1c-0.4,0.2-0.8,0.5-1.2,0.7c-0.1,0-0.2,0.1-0.2,0.1
				c-0.9,0.5-1.8,0.9-2.8,1.2c-0.1,0-0.1,0-0.2,0.1c-0.5,0.1-0.9,0.3-1.4,0.4c0,0,0,0,0,0c-0.5,0.1-1,0.2-1.5,0.3v4.6c0,0,0,0,0,0
				c0.6-0.1,1.2-0.2,1.8-0.3c0.1,0,0.1,0,0.2,0c0.6-0.1,1.2-0.3,1.8-0.4c0.1,0,0.1,0,0.2-0.1c0.6-0.2,1.2-0.4,1.8-0.6
				c0,0,0.1,0,0.1,0c0.6-0.2,1.2-0.5,1.8-0.8c0,0,0,0,0,0c0.6-0.3,1.1-0.6,1.7-0.9c0.1,0,0.1-0.1,0.2-0.1c0.5-0.3,1.1-0.7,1.6-1.1
				c0.1-0.1,0.2-0.1,0.3-0.2c0.5-0.4,1-0.8,1.6-1.2c0.1-0.1,0.1-0.1,0.2-0.2c0.5-0.5,1.1-0.9,1.6-1.4c5-4.8,8.2-9.4,10.2-12.7
				l-2.5-4.8C40.4,28,37.1,33.9,30.9,39.8z"/>
		</g>
		
        <linearGradient id="SVGID_00000155839949123164245280000009549841806559943047_" gradientUnits="userSpaceOnUse" x1="44.1723" y1="13.0447" x2="70.3395" y2="13.0447">
			<stop  offset="0" class="st0"/>
			<stop  offset="1" class="st0"/>
		</linearGradient>
		<path class="st0" d="M57.5,11.3c4.1-3.9,8.4-5.9,12.9-6.2V0.5
			c-5.6,0.2-11,2.7-16,7.5c-5,4.8-8.2,9.4-10.2,12.7l2.5,4.9C47.9,23.2,51.2,17.3,57.5,11.3z"/>
		<g>
			<path class="st3" d="M97.2,46.9V25.3c0-0.5,0.3-0.8,0.8-0.8h3.8c0.4,0,0.7,0.2,0.9,0.6l7,17.8l7-17.8c0.1-0.4,0.4-0.6,0.9-0.6
				h3.8c0.5,0,0.8,0.3,0.8,0.8v21.6c0,0.5-0.3,0.8-0.8,0.8H119c-0.5,0-0.8-0.3-0.8-0.8V30.4L111.8,47c-0.1,0.4-0.4,0.6-0.9,0.6h-2.4
				c-0.4,0-0.7-0.2-0.9-0.6l-6.4-16.5v16.4c0,0.5-0.3,0.8-0.8,0.8H98C97.5,47.7,97.2,47.4,97.2,46.9z"/>
			<path class="st3" d="M145.1,47.7h-2.5c-0.4,0-0.8-0.2-0.9-0.6l-1.5-4.1h-10.3l-1.5,4.1c-0.1,0.4-0.5,0.6-0.9,0.6h-2.5
				c-0.6,0-0.8-0.3-0.6-0.9l8.1-21.7c0.1-0.4,0.5-0.6,0.9-0.6h3.2c0.4,0,0.7,0.2,0.9,0.6l8.1,21.7C145.9,47.3,145.7,47.7,145.1,47.7
				z M139,39.4l-3.9-10.9l-3.9,10.9H139z"/>
			<path class="st3" d="M165,47.7h-2.8c-0.4,0-0.7-0.2-0.9-0.6l-3.9-7.9H152v7.7c0,0.5-0.3,0.8-0.8,0.8h-2.4c-0.5,0-0.8-0.3-0.8-0.8
				V25.3c0-0.5,0.3-0.8,0.8-0.8h9c4.6,0,7.7,2.9,7.7,7.3c0,3.1-1.6,5.5-4.1,6.6l4.2,8.3C165.9,47.3,165.6,47.7,165,47.7z M152,35.5
				h5.6c2.3,0,3.9-1.5,3.9-3.6c0-2.2-1.6-3.6-3.9-3.6H152V35.5z"/>
			<path class="st3" d="M188.8,36.1c0,7-4.8,11.6-12,11.6h-7.1c-0.5,0-0.8-0.3-0.8-0.8V25.3c0-0.5,0.3-0.8,0.8-0.8h7.4
				C184.1,24.5,188.8,29.1,188.8,36.1z M184.6,36.1c0-4.7-3.1-7.9-7.9-7.9h-3.9V44h3.9C181.5,44,184.6,40.8,184.6,36.1z"/>
			<path class="st3" d="M192,46.9V25.3c0-0.5,0.3-0.8,0.8-0.8h2.4c0.5,0,0.8,0.3,0.8,0.8v21.6c0,0.5-0.3,0.8-0.8,0.8h-2.4
				C192.3,47.7,192,47.4,192,46.9z"/>
			<path class="st3" d="M228.9,36.2c0-0.1,0-0.1,0-0.2l0,0c-0.1-0.4-0.3-0.6-0.7-0.6h-9.8c-0.5,0-0.8,0.3-0.8,0.8v2.1
				c0,0.5,0.3,0.8,0.8,0.8h6.1c-1,3.1-3.6,5.1-6.9,5.1c-0.3,0-0.6,0-0.9-0.1c-3.8-0.6-6.3-3.7-6.3-8.1c0-4.9,3.1-8.2,7.5-8.2
				c3,0,5.5,1.6,6.5,4.1c0.2,0.5,0.5,0.7,1,0.5l2.1-0.8c0.4-0.2,0.7-0.5,0.5-1c-1.3-4-5.3-6.6-10.3-6.6c-6.9,0-11.5,4.8-11.5,12
				c0,7.1,4.4,11.9,11,11.9l0,0c0.2,0,0.4,0,0.5,0C224.3,48,228.8,43.3,228.9,36.2L228.9,36.2C228.9,36.2,228.9,36.2,228.9,36.2z"/>
			<path class="st3" d="M248.4,47.7h-2.8c-0.4,0-0.7-0.2-0.9-0.6l-3.9-7.9h-5.5v7.7c0,0.5-0.3,0.8-0.8,0.8h-2.4
				c-0.5,0-0.8-0.3-0.8-0.8V25.3c0-0.5,0.3-0.8,0.8-0.8h9c4.6,0,7.7,2.9,7.7,7.3c0,3.1-1.6,5.5-4.1,6.6l4.2,8.3
				C249.2,47.3,249,47.7,248.4,47.7z M235.3,35.5h5.6c2.3,0,3.9-1.5,3.9-3.6c0-2.2-1.6-3.6-3.9-3.6h-5.6V35.5z"/>
			<path class="st3" d="M271.2,47.7h-2.5c-0.4,0-0.8-0.2-0.9-0.6l-1.5-4.1h-10.3l-1.5,4.1c-0.1,0.4-0.5,0.6-0.9,0.6h-2.5
				c-0.6,0-0.8-0.3-0.6-0.9l8.1-21.7c0.1-0.4,0.5-0.6,0.9-0.6h3.2c0.4,0,0.7,0.2,0.9,0.6l8.1,21.7C272.1,47.3,271.8,47.7,271.2,47.7
				z M265.1,39.4l-3.9-10.9l-3.9,10.9H265.1z"/>
			<path class="st3" d="M272.9,41.4c-0.1-0.5,0.2-0.8,0.7-0.8l2.2-0.4c0.5-0.1,0.8,0.2,0.9,0.6c0.5,2.3,2.6,3.8,5.6,3.8
				c2.8,0,4.6-1.4,4.6-3.4c0-1.5-1.1-2.4-2.9-2.9l-4.9-1.1c-3.6-0.8-5.5-3.1-5.5-6.4c0-4,3.5-6.7,8.6-6.7c4.1,0,7.1,2.1,8.1,5.2
				c0.2,0.5-0.1,0.8-0.5,1l-2.1,0.6c-0.5,0.2-0.8,0-0.9-0.5c-0.7-1.8-2.5-2.9-4.8-2.9c-2.6,0-4.4,1.3-4.4,3.2c0,1.5,1,2.4,2.9,2.9
				l4.9,1.2c3.7,0.9,5.6,3.2,5.6,6.3c0,4.1-3.6,6.8-8.8,6.8C277.1,48,273.6,45.4,272.9,41.4z"/>
			<path class="st3" d="M97.6,13.3c0-0.3,0.1-0.4,0.4-0.5l1.2-0.2c0.3,0,0.4,0.1,0.5,0.3c0.3,1.3,1.4,2.1,3.1,2.1
				c1.5,0,2.5-0.7,2.5-1.8c0-0.8-0.6-1.3-1.6-1.6l-2.7-0.6c-2-0.5-3-1.7-3-3.5c0-2.2,1.9-3.7,4.7-3.7c2.2,0,3.9,1.2,4.4,2.9
				c0.1,0.3,0,0.4-0.3,0.5l-1.1,0.3c-0.3,0.1-0.4,0-0.5-0.3c-0.4-1-1.4-1.6-2.6-1.6c-1.4,0-2.4,0.7-2.4,1.8c0,0.8,0.6,1.3,1.6,1.6
				l2.7,0.6c2,0.5,3.1,1.8,3.1,3.5c0,2.3-1.9,3.7-4.8,3.7C99.8,16.9,97.9,15.4,97.6,13.3z"/>
			<path class="st3" d="M116.7,8.3l-3,8.4l-0.4,1.1c-0.6,1.6-1.6,2.4-3.2,2.4h-1.3c-0.3,0-0.4-0.1-0.4-0.4v-1c0-0.3,0.1-0.4,0.4-0.4
				h1.2c0.7,0,1.2-0.4,1.2-1c0-0.2-0.1-0.5-0.2-0.7l-3-8.4c-0.1-0.3,0-0.5,0.3-0.5h1.4c0.2,0,0.4,0.1,0.5,0.3l2.2,7.1l2.2-7.1
				c0.1-0.2,0.2-0.3,0.5-0.3h1.3C116.7,7.8,116.8,8,116.7,8.3z"/>
			<path class="st3" d="M125.9,3.9v12.3c0,0.3-0.2,0.4-0.4,0.4h-0.9c-0.3,0-0.4-0.1-0.4-0.4l-0.2-1.1h0c-0.3,1-1.4,1.7-2.8,1.7
				c-2.4,0-4-1.9-4-4.6c0-2.8,1.6-4.6,4-4.6c1.3,0,2.4,0.7,2.8,1.7h0V3.9c0-0.3,0.2-0.4,0.4-0.4h1.2C125.7,3.5,125.9,3.7,125.9,3.9z
				 M123.9,12.3c0-1.7-0.9-2.8-2.4-2.8s-2.4,1.1-2.4,2.8c0,1.7,1,2.8,2.4,2.8S123.9,13.9,123.9,12.3z"/>
			<path class="st3" d="M136,11v5.2c0,0.3-0.1,0.4-0.4,0.4h-1.2c-0.3,0-0.4-0.1-0.4-0.4v-4.5c0-1.4-0.8-2.2-1.9-2.2
				c-1.3,0-2.1,1-2.1,2.4v4.3c0,0.3-0.1,0.4-0.4,0.4h-1.2c-0.3,0-0.4-0.1-0.4-0.4v-8c0-0.3,0.1-0.4,0.4-0.4h0.9
				c0.2,0,0.4,0.1,0.5,0.4l0.2,1.1h0c0.4-1,1.5-1.7,2.8-1.7C134.7,7.6,136,9,136,11z"/>
			<path class="st3" d="M146.2,12.1v0.3c0,0.3-0.1,0.4-0.4,0.4h-6.3c0.2,1.4,1.2,2.2,2.6,2.2c0.9,0,1.7-0.4,2.1-1.1
				c0.2-0.2,0.3-0.3,0.6-0.2l0.8,0.3c0.3,0.1,0.3,0.3,0.2,0.5c-0.7,1.3-2.1,2.1-3.7,2.1c-2.7,0-4.5-1.9-4.5-4.6
				c0-2.8,1.7-4.6,4.4-4.6C144.5,7.6,146.2,9.4,146.2,12.1z M139.5,11.7h4.8c-0.1-1.5-1-2.3-2.4-2.3
				C140.5,9.4,139.6,10.2,139.5,11.7z"/>
			<path class="st3" d="M155.4,8.3l-3,8.4l-0.4,1.1c-0.6,1.6-1.6,2.4-3.2,2.4h-1.3c-0.3,0-0.4-0.1-0.4-0.4v-1c0-0.3,0.1-0.4,0.4-0.4
				h1.2c0.7,0,1.2-0.4,1.2-1c0-0.2-0.1-0.5-0.2-0.7l-3-8.4c-0.1-0.3,0-0.5,0.3-0.5h1.4c0.2,0,0.4,0.1,0.5,0.3l2.2,7.1l2.2-7.1
				c0.1-0.2,0.2-0.3,0.5-0.3h1.3C155.4,7.8,155.5,8,155.4,8.3z"/>
			<path class="st3" d="M182.4,15.4v0.9c0,0.3-0.2,0.4-0.4,0.4h-0.6c-0.9,0-1.5-0.4-1.7-1.1c-0.6,0.8-1.6,1.3-3,1.3
				c-1.9,0-3-1-3-2.6c0-1.3,1-2.2,2.7-2.5l2.5-0.4c0.5-0.1,0.7-0.4,0.7-0.8v0c0-0.8-0.6-1.4-1.7-1.4c-1,0-1.7,0.5-1.9,1.2
				c-0.1,0.3-0.3,0.3-0.5,0.3l-1-0.2c-0.3-0.1-0.4-0.2-0.3-0.5c0.5-1.5,1.9-2.4,3.7-2.4c2.3,0,3.7,1.2,3.7,3.1v3.7
				c0,0.3,0.1,0.5,0.4,0.5h0C182.2,15,182.4,15.1,182.4,15.4z M179.5,13.1v-0.5L177,13c-0.8,0.1-1.3,0.6-1.3,1.2
				c0,0.7,0.6,1.2,1.6,1.2C178.6,15.4,179.5,14.5,179.5,13.1z"/>
			<path class="st3" d="M191.1,8.3l-3,8.4l-0.4,1.1c-0.6,1.6-1.6,2.4-3.2,2.4h-1.3c-0.3,0-0.4-0.1-0.4-0.4v-1c0-0.3,0.1-0.4,0.4-0.4
				h1.2c0.7,0,1.2-0.4,1.2-1c0-0.2-0.1-0.5-0.2-0.7l-3-8.4c-0.1-0.3,0-0.5,0.3-0.5h1.4c0.2,0,0.4,0.1,0.5,0.3l2.2,7.1l2.2-7.1
				c0.1-0.2,0.2-0.3,0.5-0.3h1.3C191.1,7.8,191.2,8,191.1,8.3z"/>
			<path class="st3" d="M205.1,15.4v0.9c0,0.3-0.2,0.4-0.4,0.4H204c-0.9,0-1.5-0.4-1.7-1.1c-0.6,0.8-1.6,1.3-3,1.3c-1.9,0-3-1-3-2.6
				c0-1.3,1-2.2,2.7-2.5l2.5-0.4c0.5-0.1,0.7-0.4,0.7-0.8v0c0-0.8-0.6-1.4-1.7-1.4c-1,0-1.7,0.5-1.9,1.2c-0.1,0.3-0.3,0.3-0.5,0.3
				l-1-0.2c-0.3-0.1-0.4-0.2-0.3-0.5c0.5-1.5,1.9-2.4,3.7-2.4c2.3,0,3.7,1.2,3.7,3.1v3.7c0,0.3,0.1,0.5,0.4,0.5h0
				C205,15,205.1,15.1,205.1,15.4z M202.2,13.1v-0.5l-2.5,0.4c-0.8,0.1-1.3,0.6-1.3,1.2c0,0.7,0.6,1.2,1.6,1.2
				C201.3,15.4,202.2,14.5,202.2,13.1z"/>
			<path class="st3" d="M214.5,11v5.2c0,0.3-0.1,0.4-0.4,0.4h-1.2c-0.3,0-0.4-0.1-0.4-0.4v-4.5c0-1.4-0.8-2.2-1.9-2.2
				c-1.3,0-2.1,1-2.1,2.4v4.3c0,0.3-0.1,0.4-0.4,0.4h-1.2c-0.3,0-0.4-0.1-0.4-0.4v-8c0-0.3,0.1-0.4,0.4-0.4h0.9
				c0.2,0,0.4,0.1,0.5,0.4l0.2,1.1h0c0.4-1,1.5-1.7,2.8-1.7C213.2,7.6,214.5,9,214.5,11z"/>
			<path class="st3" d="M224.9,3.9v12.3c0,0.3-0.2,0.4-0.4,0.4h-0.9c-0.3,0-0.4-0.1-0.5-0.4l-0.2-1.1h0c-0.3,1-1.4,1.7-2.8,1.7
				c-2.4,0-4-1.9-4-4.6c0-2.8,1.6-4.6,4-4.6c1.3,0,2.4,0.7,2.8,1.7h0V3.9c0-0.3,0.2-0.4,0.4-0.4h1.2C224.7,3.5,224.9,3.7,224.9,3.9z
				 M222.9,12.3c0-1.7-0.9-2.8-2.4-2.8s-2.4,1.1-2.4,2.8c0,1.7,1,2.8,2.4,2.8S222.9,13.9,222.9,12.3z"/>
			<path class="st3" d="M238.7,15.1v1.2c0,0.3-0.1,0.4-0.4,0.4h-6.5c-0.3,0-0.4-0.1-0.4-0.4V4.5c0-0.3,0.2-0.4,0.4-0.4h1.3
				c0.3,0,0.4,0.1,0.4,0.4v10.2h4.7C238.5,14.7,238.7,14.8,238.7,15.1z"/>
			<path class="st3" d="M248.2,12.1v0.3c0,0.3-0.1,0.4-0.4,0.4h-6.3c0.2,1.4,1.2,2.2,2.6,2.2c0.9,0,1.7-0.4,2.1-1.1
				c0.2-0.2,0.3-0.3,0.6-0.2l0.8,0.3c0.3,0.1,0.3,0.3,0.2,0.5c-0.7,1.3-2.1,2.1-3.7,2.1c-2.7,0-4.5-1.9-4.5-4.6
				c0-2.8,1.7-4.6,4.4-4.6C246.5,7.6,248.2,9.4,248.2,12.1z M241.5,11.7h4.8c-0.1-1.5-1-2.3-2.4-2.3
				C242.6,9.4,241.7,10.2,241.5,11.7z"/>
			<path class="st3" d="M249.3,14.5c-0.1-0.3,0.1-0.4,0.3-0.5l0.9-0.1c0.2-0.1,0.4,0.1,0.5,0.3c0.2,0.7,1,1.1,2,1.1
				c1,0,1.7-0.5,1.7-1.2c0-0.5-0.3-0.8-1-0.9l-1.6-0.3c-1.7-0.4-2.7-1.2-2.7-2.6c0-1.6,1.4-2.7,3.5-2.7c1.6,0,2.8,0.8,3.3,1.9
				c0.1,0.3,0,0.5-0.3,0.5l-0.9,0.3c-0.3,0.1-0.4,0-0.5-0.3c-0.3-0.5-0.9-0.9-1.6-0.9c-0.9,0-1.5,0.5-1.5,1.1c0,0.5,0.4,0.9,1.1,1
				l1.7,0.3c1.6,0.3,2.5,1.1,2.5,2.4c0,1.7-1.5,2.8-3.7,2.8C251.2,16.9,249.8,16,249.3,14.5z"/>
			<path class="st3" d="M267.1,12.3c0,2.8-1.6,4.6-4.1,4.6c-1.3,0-2.4-0.7-2.8-1.7h0l-0.2,1.1c-0.1,0.3-0.2,0.4-0.5,0.4h-0.9
				c-0.3,0-0.4-0.1-0.4-0.4V3.9c0-0.3,0.1-0.4,0.4-0.4h1.2c0.3,0,0.4,0.1,0.4,0.4v5.3h0c0.4-1,1.5-1.7,2.8-1.7
				C265.5,7.6,267.1,9.5,267.1,12.3z M265.1,12.3c0-1.7-1-2.8-2.4-2.8s-2.4,1.1-2.4,2.8c0,1.7,1,2.8,2.4,2.8S265.1,13.9,265.1,12.3z
				"/>
			<path class="st3" d="M268.8,5.4V3.9c0-0.3,0.1-0.4,0.4-0.4h1.3c0.3,0,0.4,0.1,0.4,0.4v1.4c0,0.3-0.1,0.4-0.4,0.4h-1.3
				C268.9,5.8,268.8,5.6,268.8,5.4z M268.9,16.3v-8c0-0.3,0.1-0.4,0.4-0.4h1.2c0.3,0,0.4,0.1,0.4,0.4v8c0,0.3-0.1,0.4-0.4,0.4h-1.2
				C269,16.7,268.9,16.5,268.9,16.3z"/>
			<path class="st3" d="M281.2,15.4v0.9c0,0.3-0.2,0.4-0.4,0.4h-0.6c-0.9,0-1.5-0.4-1.7-1.1c-0.6,0.8-1.6,1.3-3,1.3
				c-1.9,0-3-1-3-2.6c0-1.3,1-2.2,2.7-2.5l2.5-0.4c0.5-0.1,0.7-0.4,0.7-0.8v0c0-0.8-0.6-1.4-1.7-1.4c-1,0-1.7,0.5-1.9,1.2
				c-0.1,0.3-0.3,0.3-0.5,0.3l-1-0.2c-0.3-0.1-0.4-0.2-0.3-0.5c0.5-1.5,1.9-2.4,3.7-2.4c2.3,0,3.7,1.2,3.7,3.1v3.7
				c0,0.3,0.1,0.5,0.4,0.5h0C281.1,15,281.2,15.1,281.2,15.4z M278.4,13.1v-0.5l-2.5,0.4c-0.8,0.1-1.3,0.6-1.3,1.2
				c0,0.7,0.6,1.2,1.6,1.2C277.5,15.4,278.4,14.5,278.4,13.1z"/>
			<path class="st3" d="M290.6,11v5.2c0,0.3-0.1,0.4-0.4,0.4H289c-0.3,0-0.4-0.1-0.4-0.4v-4.5c0-1.4-0.8-2.2-1.9-2.2
				c-1.3,0-2.1,1-2.1,2.4v4.3c0,0.3-0.1,0.4-0.4,0.4h-1.2c-0.3,0-0.4-0.1-0.4-0.4v-8c0-0.3,0.1-0.4,0.4-0.4h0.9
				c0.2,0,0.4,0.1,0.5,0.4l0.2,1.1h0c0.4-1,1.5-1.7,2.8-1.7C289.3,7.6,290.6,9,290.6,11z"/>
			<path class="st3" d="M172.6,10.5C172.6,10.4,172.6,10.4,172.6,10.5L172.6,10.5c0-0.3-0.2-0.4-0.4-0.4h-5.3
				c-0.3,0-0.4,0.1-0.4,0.4v1.2c0,0.3,0.1,0.4,0.4,0.4h3.3c-0.5,1.7-1.9,2.7-3.7,2.7c-0.2,0-0.3,0-0.5,0c-2.1-0.3-3.4-2-3.4-4.4
				c0-2.6,1.7-4.4,4.1-4.4c1.6,0,3,0.9,3.5,2.2c0.1,0.3,0.3,0.4,0.5,0.3l1.2-0.4c0.2-0.1,0.4-0.3,0.3-0.5c-0.7-2.2-2.9-3.6-5.6-3.6
				c-3.7,0-6.2,2.6-6.2,6.5c0,3.9,2.4,6.5,6,6.5l0,0c0.1,0,0.2,0,0.3,0C170.1,16.9,172.5,14.3,172.6,10.5L172.6,10.5
				C172.6,10.5,172.6,10.5,172.6,10.5z"/>
		</g>
	</g>
	<g>
		<path class="st0" d="M19.3,45.9c-0.2,0-0.5,0-0.7,0.1v4.6c0.2,0,0.5,0,0.7,0c0,0,0,0,0,0c0.1,0,0.2,0,0.3,0v-4.6
			C19.5,45.9,19.4,45.9,19.3,45.9z"/>
		<path class="st0" d="M70.3,5.1c0.2,0,0.5,0,0.7,0V0.5c-0.2,0-0.5,0-0.7,0c-0.1,0-0.2,0-0.3,0v4.6C70.1,5.1,70.2,5.1,70.3,5.1z"/>
	</g>
</g>
</svg>
