<?xml version="1.0" encoding="UTF-8"?>
<svg id="Layer_1" data-name="Layer 1" xmlns="http://www.w3.org/2000/svg" viewBox="0 0 1920 451.98">
  <defs>
    <style>
      .cls-1 {
        fill: #ff00f2;
      }
    </style>
  </defs>
  <path class="cls-1" d="M70.1,23.67c36.04,11.23,72.53,20.8,109.12,30.02,76.9,130.89,153.79,261.78,230.69,392.67-30.38-.09-60.76-.18-91.13-.26-57.29-112.47-114.58-224.94-171.87-337.41,44.65,110.83,84.97,222.97,119.8,337.28-41.54-.1-83.09-.18-124.63-.25C94.17,328.86,54.51,209.73,25.16,86.85c21.94,119.6,43.87,239.2,65.81,358.8C60.65,445.63,30.32,445.61,0,445.6,0,297.07,0,148.53,0,0c.87,0,6.28,2.38,27.16,9.62,40.9,119.76,89.86,235.91,145.31,349.64-28.14-113.78-62.63-225.34-102.37-335.59Z"/>
  <path class="cls-1" d="M582.12,446.88c-15.94-20.66-31.9-41.31-47.87-61.95-23.36-.88-46.71-1.78-70.07-2.69,10.69,21.45,21.36,42.91,32,64.39-24.01-.07-48.03-.15-72.04-.22-57.31-126.83-117.4-252.33-178.37-377.44,44.82,9.41,89.77,17.79,134.93,25.39,93.94,116.81,187.63,233.82,278.9,352.74-25.83-.07-51.65-.14-77.48-.22ZM434.53,322.68c21.61,1.56,32.61,2.34,55.01,3.86-49.94-64.74-99.84-129.51-149.55-194.43,31.41,63.58,62.99,127.06,94.55,190.57Z"/>
  <path class="cls-1" d="M815.66,447.44c-22.41-.04-33.61-.06-55.99-.11-14.55-28.22-38.49-99.58-79.93-99.15-4.54-.2-6.8-.3-11.32-.51,17.76,33.19,35.51,66.38,53.27,99.57-20.67-.05-30.99-.07-51.63-.13-66.4-113.12-132.79-226.24-199.2-339.36,33.99,4.6,68.06,8.5,102.16,12.18,66.64,7.01,131.78,47.5,154.29,111.28,12.82,36.34,27.77,102.11-29.32,109.54,63.72,4.93,91.74,53.72,117.67,106.68ZM637.62,290.1c5.54.36,8.32.54,13.92.9,35.93,5.97,12.42-44.11,6.07-56.77-14.08-28.08-33.44-55.61-67.96-58.41-5.58-.53-8.36-.8-13.88-1.35,20.62,38.54,41.23,77.09,61.85,115.63Z"/>
  <path class="cls-1" d="M805.25,137.15c46.29,1.66,100.97,9.82,137.36,41.27,33.12,28.61,37.08,75.01,36.36,116.18-1.1,63.04-18.98,153.85-99.08,152.94-21.6-.02-32.38-.04-53.94-.08-38.36-105.22-76.7-210.44-115.06-315.66,31.45,2.05,62.89,3.82,94.36,5.35ZM876.23,393.56c41.81.34,28.18-76.38,25.68-99.8-4.39-41.14-17.78-101.39-69.97-101.99-4.99-.19-7.48-.29-12.44-.49,16.08,67.39,32.15,134.78,48.23,202.16,3.4.05,5.1.07,8.5.11Z"/>
  <path class="cls-1" d="M984.17,447.6c3.52-102,7.04-204,10.55-306.01,21.91-.16,43.82-.37,65.72-1-11.32,102.33-22.64,204.66-33.96,306.99-16.92.01-25.39.01-42.31.01Z"/>
  <path class="cls-1" d="M1172.43,336.16c5.33-18.4,10.66-36.8,15.99-55.19,34.78-1.97,69.54-4.19,104.29-6.82-22.49,57.71-44.98,115.41-67.47,173.12-14.24.03-21.37.05-35.62.08,8.65-30.53,17.14-61.09,25.48-91.7-13.44,34.47-39.83,95.47-83.46,96.32-61.2,1.18-36.85-129.3-31.64-159.25,14.05-80.73,67.05-158.19,154.06-168.34,71.79-8.37,78.59,54.29,58.79,107.55-25.62,8.35-51.33,16.42-77.11,24.24,4.76-15.47,24.19-76.97-2.52-75.98-36.35,1.35-55.99,77.35-64.7,109.8-5.47,20.37-25.12,105.8-.07,106.51,18.7.53,38.4-40.87,47.06-62.18-17.14.79-25.76,1.17-43.08,1.84Z"/>
  <path class="cls-1" d="M1435.89,446.65c-23.94.08-47.87.15-71.81.22,4.82-11.1,61-116.72,12.8-105.03-5.48.33-8.22.49-13.73.82-15.97,34.79-31.94,69.57-47.91,104.35-22.18.06-44.36.12-66.54.18,45.74-111.14,91.46-222.28,137.19-333.41,39.66-5.45,79.27-11.29,118.74-17.99,77.61-16.89,77.95,43.95,51.42,97.96-30.21,61.5-77.91,121.8-148.06,137.34,77.44-2.8,45.39,67.25,27.9,115.55ZM1390.85,282.33c6.58-.58,9.86-.87,16.38-1.45,36.74-2.73,56.02-40.06,70.49-68.34,10.23-19.99,25.84-63.63-15.67-53.56-6.2.88-9.31,1.31-15.58,2.18-18.54,40.39-37.08,80.79-55.62,121.18Z"/>
  <path class="cls-1" d="M1587.54,446.18c7.54-23.26,15.17-46.49,22.9-69.69-22.52.9-45.05,1.82-67.57,2.74-13.62,22.43-27.3,44.84-41.03,67.21-24.05.08-48.1.15-72.15.23,82.44-127.33,164.46-254.93,244.65-383.7,36.79-8.17,73.48-16.65,110.04-25.82-44.34,135.02-84.99,271.05-119.94,408.81-25.63.07-51.26.14-76.9.21ZM1581.19,315.88c20.92-1.61,31.22-2.4,51.41-3.93,23.79-69.19,48.18-138.17,73.02-206.99-40.81,70.7-82.33,140.98-124.43,210.92Z"/>
  <path class="cls-1" d="M1711.64,312.52c30.34-6.51,60.63-13.2,90.88-20.11-6.03,17.92-34.19,89.11,9.47,86.82,16.85-.88,30.52-14.38,34.78-38.34,7.72-43.46-18.02-54.91-48.87-75.71-47.65-32.14-36.58-78.44-18.7-126.15,18.74-49.99,62.56-120.02,114.43-136.65,33.19-10.64,22.75,127.93,22.36,143.43-13.88,6.4-23.41,10.25-46.26,18.58,3.44-14.76,22.95-88.84,4.43-89.72-7.05-.33-20.58,18.54-28.18,43.6-12.3,40.56,3.3,53.79,30.34,78.56,36.69,33.62,42.13,81.7,43.6,129.09,2.42,78.12-53.71,125.04-129.13,126.04-85.2,1.13-107.48-69.24-79.15-139.45Z"/>
</svg>