<?xml version="1.0" encoding="UTF-8"?>
<svg id="Layer_1" data-name="Layer 1" xmlns="http://www.w3.org/2000/svg" viewBox="0 0 1920 473.34">
  <defs>
    <style>
      .cls-1 {
        fill: #ff00f2;
      }
    </style>
  </defs>
  <path class="cls-1" d="M32.05,386.56c26.11-6.58,52.01-14.02,77.99-21.07-12.31,25.28-24.63,50.55-36.94,75.83C48.18,451.22,24.07,461.65,0,473.34V6.67c92-.01,184.01-.18,276.01-.43-12.06,25.38-24.12,50.76-36.17,76.13-45.99,1.76-91.98,3.3-137.99,4.4-8.57,36.82-17.14,73.63-25.71,110.45,35.2-2.47,70.31-5.66,105.43-9.14-11.74,25.5-23.48,50.99-35.23,76.49-29.58,4.69-59.15,9.18-88.88,12.86-8.47,36.38-16.94,72.76-25.41,109.13Z"/>
  <path class="cls-1" d="M184.14,224.27C227.76,135.33,304.43-.51,419.97,0c106.98.48,34.01,124.74,3.7,169.74-33.63,9.08-67.06,18.69-100.35,28.94,4.21-6.45,89.95-131.13,51.87-127.7-17.66,1.59-31.79,15.45-43.06,28.41-30.15,34.66-53.38,76.26-76.75,115.39-21.04,35.24-47.26,72.53-60.88,111.75-3.03,8.71-8.99,24.93,6,21.41,16.14-3.79,28.62-18.47,39.31-30.86,27.9-32.35,51.04-69.16,74.52-104.71,24.55,3.27,49.16,6.04,73.82,8.34-54.74,78.57-140.96,168.75-233.38,198.49-79.35,25.53,21.02-177.91,29.37-194.94Z"/>
  <path class="cls-1" d="M375.62,261.54c26.37-7.64,52.82-14.88,79.4-21.78-4.29,5.72-59.15,77.34-21.12,68.9,18.04-4.01,35.63-18.31,45.84-33.67,21.91-32.95,2.7-39.08-19.99-57.47-37.38-30.29,4.74-82.99,24.36-111.7C517.3,57.23,572.76,1.29,636.63.52c73.85-.9,23.18,87.12,4.15,117.12-25.71,5.07-51.37,10.42-76.98,16.01,1.86-2.53,58.43-76.2,29.83-74.05-18.05,1.35-33.42,20.09-43.85,34.44-22.92,31.54-15.15,45.45,12.04,65.48,36.95,27.21,22.51,61.67,2.35,96.52-35.31,61.02-105.34,100.69-174.51,112.49-86.16,14.7-39.4-68.96-14.02-106.99Z"/>
  <path class="cls-1" d="M884.91,4.62c-4.82,18.77-9.63,37.54-14.45,56.31-20.08.21-40.16.48-60.24.82-35.98,90.13-71.96,180.27-107.94,270.4-38.16,2.23-76.26,4.92-114.35,8.14,49.55-92.34,99.09-184.68,148.64-277.02-19.02.46-38.04.97-57.05,1.53,12.25-19.96,24.51-39.92,36.76-59.88,56.21-.13,112.42-.24,168.63-.29Z"/>
  <path class="cls-1" d="M1006.7,325.47c-5.63-18.41-10.93-36.93-15.87-55.54-30.67-.18-61.34-.11-92,.27-5.91,18.67-12.14,37.23-18.69,55.68-33.21.59-66.41,1.45-99.61,2.63,53.58-104.19,99.21-211.47,132.49-323.91,27.17-.01,54.33-.02,81.5,0,28.68,112.1,70.49,219.07,120.96,323.08-36.26-1.08-72.51-1.8-108.78-2.21ZM914.37,218.26c21.41-.19,42.82-.24,64.23-.17-12.18-55.96-21.3-112.1-27.09-169.08-9.22,57.2-21.7,113.4-37.13,169.24Z"/>
  <path class="cls-1" d="M1198.59,4.9c12.1,19.91,24.19,39.82,36.28,59.73-19.73-.57-39.46-1.09-59.19-1.55,48.25,92.07,96.5,184.14,144.76,276.21-39.92-3.24-79.85-5.9-119.84-8.07-33.8-89.88-67.6-179.76-101.4-269.64-20.87-.33-41.75-.58-62.62-.77-4.17-18.73-8.34-37.47-12.51-56.2,58.17.05,116.34.15,174.52.29Z"/>
  <path class="cls-1" d="M1434.03,350.76c-72.51-115.27-145-230.55-217.5-345.82,26.41.07,52.82.14,79.23.22,82.88,120.34,165.75,240.68,248.63,361.02-36.68-5.92-73.48-10.89-110.36-15.42Z"/>
  <path class="cls-1" d="M1443.83,188.89C1415.97,148.22,1323.53-.63,1436.86,0c105.57.58,182.79,105.74,229.9,187.9-21.88,4.35-43.86,7.93-65.91,11.28-22.78-34.67-68.38-126.46-117.78-130.7-39.89-3.42,50.02,123.28,54.98,130.46,28.06,40.66,71.56,123.8,125.31,136.75,16.16,3.89,10.79-11.16,7.61-20.36-12.52-36.21-40.57-70.7-61.15-102.41,30.01,9.85,59.85,20.11,89.35,31.41,16.85,30.23,106.96,184.15,9.26,159.56-108.92-27.41-203.73-126.14-264.6-215Z"/>
  <path class="cls-1" d="M1906.71,466.81c-7.27-27.07-15.03-53.96-23.27-80.76-16.02-4.14-31.96-8.63-47.91-13.04,8.45,24.88,17.37,49.6,26.59,74.2-21.32-8.47-42.99-15.84-64.78-23.01-61.53-135.62-114.71-274.33-154.4-417.96,62.34.17,124.68.3,187.03.38,54.96,150.59,88.17,306.09,90.03,466.72-.68,0-3.12-1.55-13.29-6.53ZM1812.88,302.92c15.2,2.9,30.45,5.66,45.73,8.13-29.84-82.64-64.36-163.04-102.97-241.95,14.9,79.04,34.13,156.79,57.23,233.83Z"/>
</svg>