<?xml version="1.0" encoding="UTF-8"?>
<svg id="Layer_1" xmlns="http://www.w3.org/2000/svg" version="1.1" viewBox="0 0 523.8 340">
  <!-- Generator: Adobe Illustrator 29.8.2, SVG Export Plug-In . SVG Version: 2.1.1 Build 3)  -->
  <defs>
    <style>
      .st0 {
        fill: #fff;
      }
    </style>
  </defs>
  <path class="st0" d="M421.4,171c-.5,0-.8-.5-.8-.9h0c0-.6.4-1,.8-1,68.8-7.9,92.4-55.5,74.1-96.4-7.4-16.6-19.9-31.3-35.9-40.6-23.5-13.7-52.9-14.9-78.7-7.5-21,6.3-44.2,21.8-64.2,45.3-17.5,20.5-35.2,55.4-55.7,88.3-20.5-32.9-38.2-67.8-55.7-88.3-20.1-23.4-43.3-39-64.2-45.3-25.8-7.4-55.2-6.2-78.7,7.5-16,9.3-28.5,24-35.9,40.6-18.3,40.9,5.3,88.5,74.1,96.4.5,0,.8.5.8.9h0c0,.6-.4,1-.8,1-68.8,7.9-92.4,55.5-74.1,96.4,7.4,16.6,19.9,31.3,35.9,40.6,23.5,13.7,52.9,14.9,78.7,7.5,21-6.3,44.2-21.8,64.2-45.3,17.9-20.8,32-49.5,55.7-88,23.7,38.5,37.9,67.1,55.7,88,20.1,23.4,43.3,39,64.2,45.3,25.8,7.4,55.2,6.2,78.7-7.5,16-9.3,28.5-24,35.9-40.6,18.3-40.9-5.3-88.5-74.1-96.4ZM210.3,222.6c-25.4,29.4-49.5,46-77.2,47.9-43.4,2.9-58.1-30.4-55.9-51.6,2-19.9,14.2-40.7,43.8-44.9,0,0,0,0,0,0,1.9-.3,3.4-1.9,3.4-3.9s-1.5-3.6-3.4-3.9c0,0,0,0,0,0-29.5-4.3-41.7-25.1-43.8-44.9-2.2-21.2,12.5-54.5,55.9-51.6,27.7,1.9,51.8,18.5,77.2,47.9,13.7,15.8,29.2,34.9,42.1,52.6-12.9,17.7-28.5,36.8-42.1,52.6ZM387.9,270.5c-27.7-1.9-51.8-18.5-77.2-47.9-13.7-15.8-29.2-34.9-42.1-52.6,12.9-17.7,28.5-36.8,42.1-52.6,25.4-29.4,49.5-46,77.2-47.9,43.4-2.9,58.1,30.4,55.9,51.6-2,19.9-14.2,40.7-43.8,44.9,0,0,0,0,0,0-1.9.3-3.4,1.9-3.4,3.9s1.5,3.6,3.4,3.9c0,0,0,0,0,0,29.6,4.2,41.8,25.1,43.8,44.9,2.2,21.2-12.5,54.5-55.9,51.6Z"/>
</svg>